<svg id="Layer_1" data-name="Layer 1" xmlns="http://www.w3.org/2000/svg" xmlns:xlink="http://www.w3.org/1999/xlink" viewBox="0 0 340.78 340.78"><defs><style>.cls-1,.cls-2{fill:none;stroke-linecap:round;stroke-linejoin:round;}.cls-1{stroke-width:12px;stroke:url(#linear-gradient);}.cls-2{stroke-width:8px;stroke:url(#linear-gradient-2);}.cls-3{fill:#312146;}.cls-4{fill:#5a2752;}.cls-5{fill:#a5405c;}.cls-6{fill:#ef5965;}.cls-7{fill:#f47d33;}.cls-8{fill:#f9a000;}</style><linearGradient id="linear-gradient" x1="195.76" y1="195.76" x2="404.24" y2="404.24" gradientTransform="translate(300 -124.26) rotate(45)" gradientUnits="userSpaceOnUse"><stop offset="0" stop-color="#312146"/><stop offset="0.2" stop-color="#5a2752"/><stop offset="0.4" stop-color="#a5405c"/><stop offset="0.6" stop-color="#ef5965"/><stop offset="0.8" stop-color="#f47d33"/><stop offset="1" stop-color="#f9a000"/></linearGradient><linearGradient id="linear-gradient-2" x1="207.41" y1="207.41" x2="392.59" y2="392.59" xlink:href="#linear-gradient"/></defs><title>Psyche_Badge_Color-SVG</title><rect class="cls-1" x="158.58" y="158.58" width="282.84" height="282.84" rx="85.71" ry="85.71" transform="translate(-253.87 170.39) rotate(-45)"/><rect class="cls-2" x="173.05" y="173.05" width="253.89" height="253.89" rx="72.8" ry="72.8" transform="translate(-253.87 170.39) rotate(-45)"/><path class="cls-3" d="M297.32,391.53a77.46,77.46,0,0,0,64-30.19A255.36,255.36,0,0,1,320.88,368Z" transform="translate(-129.61 -129.61)"/><path class="cls-3" d="M391.51,297.34L368,320.86a252.29,252.29,0,0,1-6.65,40.47A77.18,77.18,0,0,0,391.51,297.34Z" transform="translate(-129.61 -129.61)"/><path class="cls-4" d="M422.67,300a61.05,61.05,0,0,0-6.45-27.37l-24.71,24.71a77.18,77.18,0,0,1-30.17,64,61.14,61.14,0,0,0,43.37-18h0A61.14,61.14,0,0,0,422.67,300Z" transform="translate(-129.61 -129.61)"/><path class="cls-4" d="M347.05,375.59a77,77,0,0,1-49.73,15.93l-24.69,24.69a61.33,61.33,0,0,0,88.71-54.88A77.41,77.41,0,0,1,347.05,375.59Z" transform="translate(-129.61 -129.61)"/><path class="cls-4" d="M297.32,391.53L320.88,368a253.39,253.39,0,0,1-57.46-1.77l-9.87,9.87A77.34,77.34,0,0,0,297.32,391.53Z" transform="translate(-129.61 -129.61)"/><path class="cls-4" d="M361.33,300a61.08,61.08,0,0,0-5.76-26L284.4,345.21c0.44,0.61.87,1.23,1.34,1.84A77.42,77.42,0,0,0,300,361.33,61.33,61.33,0,0,0,361.33,300Z" transform="translate(-129.61 -129.61)"/><path class="cls-4" d="M366.18,263.44A254.1,254.1,0,0,1,368,320.86l23.53-23.53A76.91,76.91,0,0,0,376,253.57Z" transform="translate(-129.61 -129.61)"/><path class="cls-5" d="M285.74,347.05c-0.46-.6-0.89-1.22-1.34-1.84L274,355.57a61.08,61.08,0,0,0,26,5.76A77.42,77.42,0,0,1,285.74,347.05Z" transform="translate(-129.61 -129.61)"/><path class="cls-5" d="M253.55,376.06l-9.78,9.78a61.44,61.44,0,0,0,12.85,18.86h0a61.5,61.5,0,0,0,16,11.51l24.69-24.69A77.34,77.34,0,0,1,253.55,376.06Z" transform="translate(-129.61 -129.61)"/><path class="cls-5" d="M391.51,297.34l24.71-24.71a61.55,61.55,0,0,0-30.38-28.85l-9.8,9.8A76.91,76.91,0,0,1,391.51,297.34Z" transform="translate(-129.61 -129.61)"/><path class="cls-5" d="M284.4,345.21L355.57,274A61.56,61.56,0,0,0,326,244.43l-56.19,56.19A76.91,76.91,0,0,0,284.4,345.21Z" transform="translate(-129.61 -129.61)"/><path class="cls-5" d="M224,346.43c0.15,0.21.3,0.42,0.45,0.62a77.4,77.4,0,0,0,14.26,14.28q-3-12.25-4.84-24.77Z" transform="translate(-129.61 -129.61)"/><path class="cls-5" d="M253.55,376.06l9.87-9.87a252.16,252.16,0,0,1-24.75-4.86A77.3,77.3,0,0,0,253.55,376.06Z" transform="translate(-129.61 -129.61)"/><path class="cls-5" d="M376,253.57c-0.15-.21-0.3-0.42-0.45-0.62a77.41,77.41,0,0,0-14.26-14.28q3,12.25,4.84,24.77Z" transform="translate(-129.61 -129.61)"/><path class="cls-5" d="M346.45,223.94l-9.87,9.87a252.15,252.15,0,0,1,24.75,4.86A77.31,77.31,0,0,0,346.45,223.94Z" transform="translate(-129.61 -129.61)"/><path class="cls-6" d="M224.41,347.05c-0.16-.2-0.3-0.42-0.45-0.62l-9.8,9.8a61.1,61.1,0,0,0,24.51,5.11A77.4,77.4,0,0,1,224.41,347.05Z" transform="translate(-129.61 -129.61)"/><path class="cls-6" d="M238.67,361.33a61.1,61.1,0,0,0,5.11,24.51l9.78-9.78A77.3,77.3,0,0,1,238.67,361.33Z" transform="translate(-129.61 -129.61)"/><path class="cls-6" d="M375.59,252.95c0.16,0.2.3,0.42,0.45,0.62l9.8-9.8a61.1,61.1,0,0,0-24.51-5.11A77.41,77.41,0,0,1,375.59,252.95Z" transform="translate(-129.61 -129.61)"/><path class="cls-6" d="M361.33,238.67a61.11,61.11,0,0,0-5.11-24.51l-9.78,9.78A77.31,77.31,0,0,1,361.33,238.67Z" transform="translate(-129.61 -129.61)"/><path class="cls-6" d="M269.77,300.62L244.43,326A61.56,61.56,0,0,0,274,355.57l10.36-10.36A76.91,76.91,0,0,1,269.77,300.62Z" transform="translate(-129.61 -129.61)"/><path class="cls-6" d="M269.77,300.62L326,244.43a61.08,61.08,0,0,0-26-5.76A77.17,77.17,0,0,0,269.77,300.62Z" transform="translate(-129.61 -129.61)"/><path class="cls-6" d="M224,346.43l9.87-9.87A254.07,254.07,0,0,1,232,279.14l-23.53,23.53A76.91,76.91,0,0,0,224,346.43Z" transform="translate(-129.61 -129.61)"/><path class="cls-6" d="M302.68,208.47L279.12,232a253.39,253.39,0,0,1,57.46,1.77l9.87-9.87A77.34,77.34,0,0,0,302.68,208.47Z" transform="translate(-129.61 -129.61)"/><path class="cls-7" d="M300,238.67A61.34,61.34,0,0,0,244.43,326l25.34-25.34A77.17,77.17,0,0,1,300,238.67Z" transform="translate(-129.61 -129.61)"/><path class="cls-7" d="M208.49,302.66l-24.71,24.71a61.5,61.5,0,0,0,11.51,16h0a61.44,61.44,0,0,0,18.86,12.85l9.8-9.8A76.91,76.91,0,0,1,208.49,302.66Z" transform="translate(-129.61 -129.61)"/><path class="cls-7" d="M346.45,223.94l9.78-9.78a61.55,61.55,0,0,0-28.85-30.38l-24.69,24.69A77.34,77.34,0,0,1,346.45,223.94Z" transform="translate(-129.61 -129.61)"/><path class="cls-7" d="M302.68,208.47a77.46,77.46,0,0,0-64,30.19A255.37,255.37,0,0,1,279.12,232Z" transform="translate(-129.61 -129.61)"/><path class="cls-7" d="M208.49,302.66L232,279.14a252.29,252.29,0,0,1,6.65-40.47A77.18,77.18,0,0,0,208.49,302.66Z" transform="translate(-129.61 -129.61)"/><path class="cls-8" d="M238.67,238.67a61.33,61.33,0,0,0-54.88,88.71l24.71-24.71A77.18,77.18,0,0,1,238.67,238.67Z" transform="translate(-129.61 -129.61)"/><path class="cls-8" d="M252.95,224.41a77,77,0,0,1,49.73-15.93l24.69-24.69a61.33,61.33,0,0,0-88.71,54.88A77.4,77.4,0,0,1,252.95,224.41Z" transform="translate(-129.61 -129.61)"/></svg>