<svg id="Layer_1" data-name="Layer 1" xmlns="http://www.w3.org/2000/svg" viewBox="0 0 340.78 340.78"><defs><style>.cls-1,.cls-2{fill:none;stroke:#312146;stroke-linecap:round;stroke-linejoin:round;}.cls-1{stroke-width:12px;}.cls-2{stroke-width:8px;}.cls-3{fill:#312146;}</style></defs><title>Psyche_Badge_BW-SVG</title><rect class="cls-1" x="83.58" y="83.58" width="282.84" height="282.84" rx="85.71" ry="85.71" transform="translate(-147.81 170.39) rotate(-45)"/><rect class="cls-2" x="98.05" y="98.05" width="253.89" height="253.89" rx="72.8" ry="72.8" transform="translate(-147.81 170.39) rotate(-45)"/><path class="cls-3" d="M341.22,197.63a61.31,61.31,0,0,0-54.88-34q3,12.25,4.84,24.77A254.1,254.1,0,0,1,293,245.86a252.29,252.29,0,0,1-6.65,40.47,61.14,61.14,0,0,0,43.37-18h0A61.33,61.33,0,0,0,341.22,197.63Z" transform="translate(-54.61 -54.61)"/><path class="cls-3" d="M188.42,291.19a252.16,252.16,0,0,1-24.75-4.86,61.3,61.3,0,0,0,18,43.36h0a61.33,61.33,0,0,0,104.7-43.37A255.37,255.37,0,0,1,245.88,293,253.39,253.39,0,0,1,188.42,291.19Z" transform="translate(-54.61 -54.61)"/><path class="cls-3" d="M251,169.43A61.33,61.33,0,1,0,280.57,199,61.08,61.08,0,0,0,251,169.43Z" transform="translate(-54.61 -54.61)"/><path class="cls-3" d="M157,204.14a252.29,252.29,0,0,1,6.65-40.47,61.33,61.33,0,0,0-43.37,104.7h0a61.3,61.3,0,0,0,43.36,18q-3-12.25-4.84-24.77A254.07,254.07,0,0,1,157,204.14Z" transform="translate(-54.61 -54.61)"/><path class="cls-3" d="M261.58,158.81a252.16,252.16,0,0,1,24.75,4.86,61.33,61.33,0,0,0-122.67,0A255.35,255.35,0,0,1,261.58,158.81Z" transform="translate(-54.61 -54.61)"/></svg>